<?xml version="1.0" encoding="utf-8"?>
<svg fill="white"  viewBox="0 0 47 47" version="1.1" xmlns="http://www.w3.org/2000/svg" xmlns:xlink="http://www.w3.org/1999/xlink" xml:space="preserve" xmlns:serif="http://www.serif.com/" style="fill-rule:evenodd;clip-rule:evenodd;stroke-linejoin:round;stroke-miterlimit:2;">
    <g>
        <g>
            <path d="M35.517,16.514L35.517,9.597C35.517,4.303 31.213,0.001 25.922,0L25.922,1.666L24.508,5.033C24.957,4.893 25.425,4.797 25.92,4.797C28.561,4.797 30.713,6.953 30.713,9.597L30.713,16.514L25.922,16.514L25.922,18.608L27.86,20.504L22.751,25.922L25.473,31.86L23.626,34.729L29.978,37.343L25.399,40.942L25.873,45.547L37.741,45.547C38.456,45.547 39.143,45.263 39.649,44.757C40.155,44.251 40.439,43.565 40.439,42.849C40.439,37.317 40.439,24.744 40.439,19.212C40.439,17.722 39.231,16.514 37.741,16.514C36.594,16.514 35.517,16.514 35.517,16.514Z" style="fill:white;fill-rule:nonzero;"/>
            <path d="M18.779,36.182L20.627,33.313L17.905,27.375L23.014,21.957L21.076,20.061L21.076,17.968L16.282,17.968L16.282,11.051C16.282,8.902 17.711,7.096 19.662,6.488L21.076,3.12L21.076,1.453L21.074,1.453C15.784,1.453 11.48,5.756 11.48,11.051L11.48,17.968L9.258,17.968C7.768,17.968 6.56,19.176 6.56,20.666C6.56,26.198 6.56,38.77 6.56,44.302C6.56,45.792 7.768,47 9.258,47C13.444,47 21.027,47 21.027,47L20.553,42.395L25.13,38.796L18.779,36.182Z" style="fill:white;fill-rule:nonzero;"/>
        </g>
    </g>
</svg>